 http://img534.imageshack.us/img534/979/loveskitchen2011hollywo.jpg

Country.......: United Kingdom
Genre.........: Drama, Comedy, Romance
Date release..: 24.06.2011 [World]
Director......: James Hacking
Writers.......: James Hacking
Duration......: 90 min.
More..........: http://www.imdb.com/title/tt1519663
Trailer.......: http://www.imdb.com/video/screenplay/vi3842350361
Trailer.......:

Pilot :
Rob Haley (Dougray Scott), an up-and-coming chef and restaurateur in London, is grief-stricken when he loses his wife. With encouragement from his infamous friend and real life TV Chef Gordon Ramsay, Rob decides to spice up his life by turning a run-down country pub into a gourmet restaurant. His food catches the eye - and taste buds - of beautiful American food critic Kate Templeton (Claire Forlani) and they soon both write a recipe for love that leaves both their hearts - and their stomachs - in full.

Cats :
John Atterbury   	 ...  	Councilman 2
Pamela Binns 	... 	Little Old Lady
Lee Boardman 	... 	Loz
Peter Bowles 	... 	Max Templeton
Joshua Bowman 	... 	Roberto
Simon Callow 	... 	Guy Witherspoon
George Camiller 	... 	Brian
Matthew Clancy 	... 	Ingo
Richard Cross 	... 	Gordon Ramsay s assistant
Katrine De Candole 	... 	Francoise
Philip Dunbar 	... 	Alfie
Adam Fogerty 	... 	Terry
Claire Forlani 	... 	Kate Templeton
Jon Foster 	... 	Producer / Director
Holly Gibbs 	... 	Michelle 

Data Technical :
!!! SAMPLE !!!
Audio.....: English
Subtitles.: None
Format                           : AVI
Format/Info                      : Audio Video Interleave
File size                        : 700 MiB
Duration                         : 1h 29mn
Overall bit rate                 : 1 088 Kbps
Writing application              : VirtualDubMod 1.5.4.1 (build 2178/release)
Writing library                  : VirtualDubMod build 2178/release
Video
ID                               : 0
Format                           : MPEG-4 Visual
Format profile                   : Advanced Simple@L5
Format settings, BVOP            : Yes
Format settings, QPel            : No
Format settings, GMC             : No warppoints
Format settings, Matrix          : Custom
Codec ID                         : XVID
Codec ID/Hint                    : XviD
Duration                         : 1h 29mn
Bit rate                         : 965 Kbps
Width                            : 640 pixels
Height                           : 368 pixels
Display aspect ratio             : 16:9
Frame rate                       : 23.976 fps
Color space                      : YUV
Chroma subsampling               : 4:2:0
Bit depth                        : 8 bits
Scan type                        : Progressive
Bits/(Pixel*Frame)               : 0.171
Stream size                      : 621 MiB (89%)
Writing library                  : XviD 58
Audio
ID                               : 1
Format                           : MPEG Audio
Format version                   : Version 1
Format profile                   : Layer 3
Mode                             : Joint stereo
Mode extension                   : MS Stereo
Codec ID                         : 55
Codec ID/Hint                    : MP3
Duration                         : 1h 29mn
Bit rate mode                    : Constant
Bit rate                         : 32.0 Kbps
Channel(s)                       : 2 channels
Sampling rate                    : 48.0 KHz
Stream size                      : 71.0 MiB (10%)
Alignment                        : Aligned on interleaves
Interleave, duration             : 24 ms (0.58 video frame)
Interleave, preload duration     : 146 ms
Writing library                  : LAME3.98.2

Screen : 
http://img684.imageshack.us/img684/9275/loveskitchen2011s1.jpg 
http://img13.imageshack.us/img13/3401/loveskitchen2011s2.jpg 
http://img163.imageshack.us/img163/313/loveskitchen2011s3.jpg 
http://img405.imageshack.us/img405/5061/loveskitchen2011s4.jpg 
http://img695.imageshack.us/img695/1818/loveskitchen2011s5.jpg